# xmcd
#
# Track frame offsets:
#	150
#	20435
#	36078
#	52730
#	74141
#	90022
#	103626
#	120753
#	141752
#	152906
#	174052
#	189747
#	204490
#	217779
#
# Disc length: 3096 seconds
#
# Revision: 0
# Processed by: cddbd v1.5.2PL0 Copyright (c) Steve Scherf et al.
# Submitted via: FairStars CD Ripper 1.01
#
DISCID=ac0c160e
DTITLE=Josh Brannon Band - All the Good Times
DYEAR=2009
DGENRE=Country
TTITLE0=I Hope This Feeling Never Ends
TTITLE1=Girl
TTITLE2=Million Dollar View
TTITLE3=Set Me Free
TTITLE4=Guitar Man
TTITLE5=In Your Eyes Tonight
TTITLE6=She'll be back
TTITLE7=Living a Jimmy Buffet Life
TTITLE8=Life is Short
TTITLE9=Home in Carolina
TTITLE10=Fishing Song
TTITLE11=Good Times
TTITLE12=Rain on my Parade
TTITLE13=Angel
EXTD=
EXTT0=
EXTT1=
EXTT2=
EXTT3=
EXTT4=
EXTT5=
EXTT6=
EXTT7=
EXTT8=
EXTT9=
EXTT10=
EXTT11=
EXTT12=
EXTT13=
PLAYORDER=
